<mxfile host="app.diagrams.net" modified="2023-12-05T13:38:51.702Z" agent="Mozilla/5.0 (Windows NT 10.0; Win64; x64) AppleWebKit/537.36 (KHTML, like Gecko) Chrome/119.0.0.0 Safari/537.36 Edg/119.0.0.0" version="22.1.5" etag="1hbZKjC4IQ_U_3qNcpOL" type="github">
  <diagram name="第 1 页" id="03SoxkYsdWMkyd-8PY1V">
    <mxGraphModel>
      <root>
        <mxCell id="0" />
        <mxCell id="1" parent="0" />
      </root>
    </mxGraphModel>
  </diagram>
</mxfile>
